<svg width="32" height="32" viewBox="0 0 32 32" fill="none" xmlns="http://www.w3.org/2000/svg">
<g id="Group">
<path id="Vector" d="M28.0001 20V24H32.0001V26.6667H28.0001V30.6667H25.3334V26.6667H21.3334V24H25.3334V20H28.0001ZM28.0107 4C28.7414 4 29.3334 4.59333 29.3334 5.324V17.7893C28.4769 17.4868 27.5751 17.3326 26.6667 17.3333V6.66667H5.33341L5.33475 25.3333L17.7241 12.9427C17.9534 12.7126 18.2588 12.5743 18.5829 12.5537C18.907 12.5331 19.2275 12.6316 19.4841 12.8307L19.6081 12.944L24.3361 17.6773C23.3023 17.9924 22.343 18.5135 21.516 19.2093C20.6891 19.9051 20.0116 20.7612 19.5244 21.7259C19.0373 22.6906 18.7505 23.744 18.6815 24.8225C18.6125 25.901 18.7626 26.9824 19.1227 28.0013L3.98941 28C3.6385 27.9996 3.30208 27.86 3.05407 27.6117C2.80606 27.3635 2.66675 27.0269 2.66675 26.676V5.324C2.66919 4.97384 2.80928 4.63869 3.05677 4.39096C3.30425 4.14322 3.63926 4.00279 3.98941 4H28.0107ZM10.6667 9.33333C11.374 9.33333 12.0523 9.61428 12.5524 10.1144C13.0525 10.6145 13.3334 11.2928 13.3334 12C13.3334 12.7072 13.0525 13.3855 12.5524 13.8856C12.0523 14.3857 11.374 14.6667 10.6667 14.6667C9.9595 14.6667 9.28123 14.3857 8.78113 13.8856C8.28103 13.3855 8.00008 12.7072 8.00008 12C8.00008 11.2928 8.28103 10.6145 8.78113 10.1144C9.28123 9.61428 9.9595 9.33333 10.6667 9.33333Z" fill="#81172C"/>
</g>
</svg>
