<svg width="89" height="36" viewBox="0 0 89 36" fill="none" xmlns="http://www.w3.org/2000/svg">
<path d="M41.2574 12.6781H37.4238V7.46191H41.1945V8.65598H38.8378V9.44154H40.9432V10.6356H38.8378V11.484H41.2574V12.6781Z" fill="#0F1820"/>
<path d="M43.5515 10.7614L43.3315 10.6985C42.4203 10.4157 41.8232 10.0387 41.8232 9.12741C41.8232 8.09047 42.5774 7.39917 43.7086 7.39917C44.2742 7.39917 44.8712 7.5877 45.4368 7.9962L44.8398 9.00172C44.4627 8.71891 44.1171 8.59323 43.7714 8.59323C43.4886 8.59323 43.3315 8.71891 43.3315 8.87603C43.3315 9.12741 43.6143 9.22168 43.9914 9.34737L44.1799 9.41021C44.9655 9.6616 45.6882 10.1329 45.6882 11.0756C45.6882 12.0811 44.9027 12.741 43.74 12.741C43.0487 12.741 42.4203 12.4896 41.9175 12.0497L42.4203 11.0756C42.8602 11.4213 43.3001 11.5469 43.6458 11.5469C44.0228 11.5469 44.1799 11.4527 44.1799 11.2327C44.2114 10.9813 43.96 10.8871 43.5515 10.7614Z" fill="#0F1820"/>
<path d="M48.7991 8.65598V12.6781H47.3851V8.65598H45.9082V7.46191H50.2759V8.65598H48.7991Z" fill="#0F1820"/>
<path d="M52.6011 9.28443L52.0355 10.7613H53.1353L52.6011 9.28443ZM51.5956 11.9554L51.3442 12.6781H49.8359L51.9413 7.46191H53.261L55.3663 12.6781H53.858L53.6067 11.9554H51.5956Z" fill="#0F1820"/>
<path d="M59.1689 10.0387C59.1689 9.19034 58.7604 8.65615 58.1319 8.65615H57.2207V11.4842H58.1319C58.7604 11.4842 59.1689 10.9186 59.1689 10.0387ZM60.6457 10.0387C60.6457 11.6099 59.6402 12.6468 58.1005 12.6468H55.8066V7.43066H58.1005C59.6402 7.46209 60.6457 8.49904 60.6457 10.0387Z" fill="#0F1820"/>
<path d="M65.265 10.0701C65.265 9.19026 64.7308 8.59323 63.9138 8.59323C63.0968 8.59323 62.5626 9.19026 62.5626 10.0701C62.5626 10.9499 63.0968 11.5469 63.9138 11.5469C64.7308 11.5469 65.265 10.9499 65.265 10.0701ZM61.1172 10.0701C61.1172 8.46754 62.2484 7.39917 63.9138 7.39917C65.5792 7.39917 66.7104 8.46754 66.7104 10.0701C66.7104 11.6726 65.5792 12.741 63.9138 12.741C62.2484 12.741 61.1172 11.6726 61.1172 10.0701Z" fill="#0F1820"/>
<path d="M72.4286 10.0387C72.4286 9.19034 72.0201 8.65615 71.3917 8.65615H70.4804V11.4842H71.3917C72.0201 11.4842 72.4286 10.9186 72.4286 10.0387ZM73.9055 10.0387C73.9055 11.6099 72.9 12.6468 71.3603 12.6468H69.0664V7.43066H71.3603C72.8685 7.46209 73.9055 8.49904 73.9055 10.0387Z" fill="#0F1820"/>
<path d="M78.4937 12.6781H74.6602V7.46191H78.4309V8.65598H76.0742V9.44154H78.1795V10.6356H76.0742V11.484H78.4937V12.6781Z" fill="#0F1820"/>
<path d="M28.029 6.55075L21.3988 8.62465C21.3988 8.62465 21.7759 5.73377 21.2103 3.87983L25.7037 0.329077C25.7037 0.266232 25.6723 0.203388 25.578 0.203388C25.3895 0.171966 25.2009 0.23481 25.0438 0.266233H25.0124L19.8277 2.65435C19.8277 2.65435 16.7168 1.7431 15.617 5.04247L8.10703 1.46029C8.10703 1.46029 8.54695 7.55628 11.6578 11.1699C11.6578 11.1699 7.72996 15.6947 6.75586 21.3194L15.2714 27.6353C15.2714 27.6353 14.4544 22.0421 14.6115 19.0255C14.6115 19.0255 23.567 20.4395 28.029 6.55075Z" fill="#A12242"/>
<path d="M15.3975 6.20504L14.6433 9.94433L12.8522 10.6042C12.8522 10.6042 10.5898 7.71333 9.70996 3.72266L15.3975 6.20504Z" fill="#BC955C"/>
<path d="M12.7261 11.9241C12.7261 11.9241 14.7685 15.5062 17.5966 17.3288C17.5966 17.3288 14.6428 18.8685 12.8203 16.4804C12.8203 16.4804 11.532 15.4434 12.7261 11.9241Z" fill="#BC955C"/>
<path d="M17.8166 5.07386C17.9108 4.5711 18.3822 4.22545 18.8535 4.31972C19.3563 4.41398 19.6705 4.88532 19.5762 5.38808C19.482 5.89085 19.0106 6.2365 18.5393 6.14223C18.068 6.04797 17.7537 5.57662 17.8166 5.07386Z" fill="white"/>
<path d="M16.1198 10.4471L20.4562 9.50439C20.4562 9.50439 20.6133 13.9664 18.5708 16.3859L15.9941 14.7205L16.1198 10.4471Z" fill="#DDC9A3"/>
<path d="M10.5579 14.7207C10.5579 14.7207 10.7464 17.423 13.1659 18.5857L13.3859 24.5874L8.20117 20.5653C8.20117 20.5653 9.04958 17.0146 10.5579 14.7207Z" fill="#DDC9A3"/>
<path d="M8.13846 10.6987V10.1645C8.29557 7.96489 6.78728 6.20523 5.24758 6.07954C4.02209 5.98527 3.51933 5.82816 3.39364 5.76531L3.36222 5.73389C3.36222 5.73389 3.36222 5.73389 3.36222 5.76531C3.3308 5.76531 3.3308 5.76531 3.3308 5.76531L3.36222 5.79674C3.42507 5.92243 3.6136 6.42519 3.83356 7.65067C4.02209 8.65619 4.8705 9.56745 6.00172 10.0074H3.83356C3.86498 8.34197 2.70234 7.02222 1.53971 6.92795C0.565607 6.83368 0.157113 6.73941 0.0628452 6.67656L0.0314226 6.64514C0.0314226 6.64514 0.0314226 6.64514 0.0314226 6.67656H0L0.0314226 6.70799C0.0942678 6.83368 0.251381 7.21076 0.408494 8.18486C0.628452 9.41034 2.07389 10.4787 3.73929 10.1959V10.6987C2.07389 10.4473 0.628452 11.5157 0.408494 12.7097C0.219958 13.6838 0.0628452 14.0923 0.0314226 14.1866V14.218C0.0314226 14.218 0.0314226 14.218 0.0628452 14.218V14.2494L0.0942678 14.218C0.219958 14.1866 0.59703 14.0609 1.57113 13.9666C2.76519 13.8723 3.95925 12.5212 3.86498 10.7929H6.2531C4.9962 11.17 4.05352 12.1441 3.86498 13.2125C3.64502 14.438 3.45649 14.9407 3.39364 15.0664L3.36222 15.0978C3.36222 15.0978 3.36222 15.0978 3.39364 15.0978C3.39364 15.1293 3.39364 15.1292 3.39364 15.1292L3.42506 15.0978C3.58218 15.035 4.08494 14.9093 5.279 14.7836C6.78728 14.6579 8.29557 12.9297 8.13846 10.6987Z" fill="#BC955C"/>
<path d="M32.8365 20.9737L31.234 25.3414H28.6259L27.0548 20.9737L26.8034 25.3414H24.1953L24.8866 15.946H27.4318L29.9456 23.0161L32.4595 15.946H34.9733L35.6646 25.3414H33.0879L32.8365 20.9737Z" fill="#A12242"/>
<path d="M49.3962 22.5763L47.6365 25.3415H44.6514L47.9507 20.4396L44.8399 15.8833H47.8251L49.3648 18.3028L50.9045 15.8833H53.8896L50.7788 20.4082L54.1096 25.3415H51.1244L49.3962 22.5763Z" fill="#A12242"/>
<path d="M57.4712 15.8833H54.8945V25.3729H57.4712V15.8833Z" fill="#A12242"/>
<path d="M64.039 17.9257C62.5308 17.9257 61.5567 18.994 61.5567 20.5966C61.5567 22.2306 62.5936 23.2989 64.1333 23.2989C65.2645 23.2989 65.9244 22.7962 66.4586 21.9163L68.1868 23.5189C67.2127 24.8386 65.8301 25.4671 64.0705 25.4671C60.9911 25.4671 58.8857 23.4875 58.8857 20.5652C58.8857 17.6429 60.9596 15.7261 64.039 15.7261C65.5473 15.7261 66.8985 16.166 67.8726 17.2344L66.2386 18.9312C65.7987 18.3027 64.9817 17.9257 64.039 17.9257Z" fill="#A12242"/>
<path d="M76.0113 20.5966C76.0113 18.994 75.0372 17.8942 73.5604 17.8942C72.0835 17.8942 71.1094 18.9626 71.1094 20.5966C71.1094 22.1991 72.0835 23.2989 73.5604 23.2989C75.0058 23.2989 76.0113 22.2306 76.0113 20.5966ZM68.4385 20.5966C68.4385 17.6743 70.4809 15.7261 73.5604 15.7261C76.6084 15.7261 78.6508 17.6743 78.6508 20.5966C78.6508 23.5189 76.6084 25.4671 73.5604 25.4671C70.4809 25.4671 68.4385 23.5189 68.4385 20.5966Z" fill="#A12242"/>
<path d="M39.812 23.1733V21.6651H43.6456V19.4969H39.812V18.0515H44.1169V15.8833H42.1373L41.1632 16.7317H39.4349L40.1262 15.8833H37.2354V25.3415H44.2112V23.1733H39.812Z" fill="#A12242"/>
<path d="M39.9688 16.449L41.5399 14.4379L43.3624 14.4065L41.1 16.449H39.9688Z" fill="#BC955C"/>
<path d="M88.0142 23.6446C87.9828 23.5504 87.8256 23.1733 87.6685 22.2621C87.4486 21.1308 86.1288 20.1567 84.6205 20.4081V19.9368C86.1602 20.1882 87.48 19.1826 87.6685 18.0828C87.8256 17.1716 87.9828 16.8259 88.0142 16.7002L88.0456 16.6688C88.0456 16.6688 88.0456 16.6688 88.0142 16.6688V16.6374L87.9828 16.6688C87.8885 16.7003 87.5114 16.8259 86.6002 16.8888C85.5004 16.9831 84.432 18.1771 84.4634 19.7168H82.4838C83.5522 19.3397 84.3063 18.4913 84.4948 17.5487C84.7148 16.4174 84.8719 15.9461 84.9348 15.8204L84.9662 15.789C84.9662 15.789 84.9662 15.789 84.9348 15.789V15.7576L84.9033 15.789C84.7776 15.8204 84.3063 15.9775 83.1751 16.0718C81.7611 16.1975 80.3471 17.8 80.5042 19.8425V20.3138C80.3471 22.3563 81.7611 23.9589 83.1751 24.0846C84.3063 24.1788 84.7776 24.3045 84.9033 24.3674L84.9348 24.3988C84.9348 24.3988 84.9348 24.3988 84.9348 24.3674H84.9662L84.9348 24.3359C84.8719 24.2103 84.6834 23.7389 84.4948 22.6077C84.3063 21.6336 83.4579 20.7223 82.2953 20.3767H84.4948C84.4006 21.9478 85.5004 23.2047 86.6316 23.299C87.5114 23.4875 87.8885 23.6132 88.0142 23.6446V23.6761C88.0142 23.6761 88.0142 23.6761 88.0142 23.6446Z" fill="#BC955C"/>
<path d="M18.8849 31.2803C18.6964 31.2803 18.5393 31.2175 18.445 31.0604C18.3193 30.9032 18.2565 30.7461 18.2565 30.5262C18.2565 30.2434 18.3193 30.0234 18.4765 29.8663C18.6336 29.6778 18.8221 29.5835 19.0421 29.5835C19.2306 29.5835 19.3877 29.6463 19.482 29.8035C19.6077 29.9606 19.6705 30.1177 19.6705 30.3376C19.6705 30.6204 19.6077 30.8404 19.4506 30.9975C19.2934 31.2175 19.1049 31.2803 18.8849 31.2803ZM17.7852 35.8052L18.2251 32.0659H19.3877L19.1049 35.8052H17.7852Z" fill="#0F1820"/>
<path d="M24.038 29.3634H21.9327L21.8384 30.3689H23.6609L23.5352 31.6887H21.7127L21.6185 32.757H23.7238L23.5981 34.2025H20.1416L20.5815 29.3634L20.6444 28.6721L20.6758 28.4522L20.7386 27.918H24.1637L24.038 29.3634Z" fill="#0F1820"/>
<path d="M24.2266 34.2025L24.8236 27.918H26.1119L25.5149 34.2025H24.2266Z" fill="#0F1820"/>
<path d="M29.7254 32.977C30.0082 32.977 30.1967 32.8828 30.3538 32.7257C30.4795 32.5685 30.5738 32.2543 30.5738 31.8458C30.5738 31.3745 30.4167 31.1545 30.1339 31.1545C29.9768 31.1545 29.8511 31.2174 29.7254 31.3116C29.5997 31.4373 29.5368 31.5945 29.5054 31.8773L29.4111 32.9142C29.5368 32.977 29.6311 32.977 29.7254 32.977ZM30.5738 29.8662C30.9823 29.8662 31.2965 30.0233 31.5479 30.3061C31.7993 30.5889 31.8935 31.0288 31.8935 31.6259C31.8935 32.5057 31.705 33.1656 31.2965 33.6369C30.9194 34.1083 30.3852 34.3282 29.694 34.3282C29.5683 34.3282 29.4111 34.2968 29.254 34.2654L29.0969 35.8051H27.8086L28.3428 29.9605H29.3483L29.3797 30.4632C29.7254 30.0547 30.1024 29.8662 30.5738 29.8662Z" fill="#0F1820"/>
<path d="M34.0938 32.977C34.5023 32.977 34.7223 32.6 34.7223 31.8773C34.7223 31.4059 34.5652 31.1545 34.2824 31.1545C34.0624 31.1545 33.9053 31.2488 33.811 31.4688C33.7168 31.6573 33.6539 31.9401 33.6539 32.2857C33.6225 32.7571 33.7796 32.977 34.0938 32.977ZM33.9681 34.2968C33.4339 34.2968 33.0255 34.1397 32.7427 33.794C32.4598 33.4484 32.3027 32.977 32.3027 32.38C32.3027 31.5945 32.4913 30.966 32.8683 30.5261C33.2454 30.0862 33.7482 29.8662 34.4081 29.8662C34.9422 29.8662 35.3507 30.0233 35.6335 30.369C35.9163 30.7146 36.0734 31.186 36.0734 31.8144C36.0734 32.6 35.8849 33.197 35.5078 33.6369C35.0993 34.0768 34.5966 34.2968 33.9681 34.2968Z" fill="#0F1820"/>
<path d="M38.1472 32.977C38.3043 32.977 38.4614 32.9142 38.5871 32.757C38.7128 32.6314 38.8071 32.4114 38.8385 32.16L38.9013 31.3745C38.7442 31.2488 38.5871 31.1859 38.3986 31.1859C38.21 31.1859 38.0529 31.2802 37.9272 31.4687C37.8015 31.6573 37.7387 31.9401 37.7387 32.3486C37.7701 32.7571 37.8958 32.977 38.1472 32.977ZM39.247 27.918H40.5353L39.9383 34.2025H38.8699L38.8071 33.8254C38.4928 34.1711 38.1472 34.3282 37.7073 34.3282C37.3302 34.3282 37.016 34.1711 36.7646 33.8883C36.5446 33.574 36.4189 33.1341 36.4189 32.5685C36.4189 31.7515 36.6075 31.0917 36.9531 30.6203C37.2988 30.149 37.7701 29.8976 38.3671 29.8976C38.6185 29.8976 38.8385 29.929 39.027 30.0233L39.247 27.918Z" fill="#0F1820"/>
<path d="M42.6406 30.9976C42.2635 30.9976 42.0436 31.2804 41.9493 31.8774C42.2007 31.846 42.4206 31.8146 42.5777 31.7517C42.7349 31.6889 42.8291 31.626 42.8605 31.5632C42.892 31.5004 42.9234 31.4061 42.9234 31.2804C42.9548 31.0919 42.8605 30.9976 42.6406 30.9976ZM42.5149 33.1029C42.7349 33.1029 42.9862 33.0401 43.2062 32.9458C43.4261 32.8515 43.6147 32.7573 43.709 32.663L43.9289 33.8256C43.8032 33.9199 43.6147 34.0456 43.3319 34.1399C43.0491 34.2341 42.7034 34.297 42.2949 34.297C41.7608 34.297 41.3523 34.1399 41.1009 33.7942C40.8181 33.48 40.6924 33.0086 40.6924 32.4116C40.6924 32.0345 40.7238 31.6889 40.8181 31.3747C40.9123 31.0604 41.038 30.7776 41.2266 30.5577C41.3837 30.3377 41.6036 30.1492 41.8864 30.0235C42.1378 29.8978 42.4521 29.835 42.7977 29.835C43.269 29.835 43.6147 29.9607 43.8346 30.1806C44.0546 30.4006 44.1803 30.7148 44.1803 31.1233C44.1803 31.4061 44.1489 31.6575 44.0546 31.846C43.9603 32.0345 43.8346 32.1917 43.6461 32.3173C43.4576 32.443 43.2376 32.5373 42.9862 32.6001C42.7349 32.663 42.4206 32.6944 42.0121 32.7258C42.075 32.9772 42.2321 33.1029 42.5149 33.1029Z" fill="#0F1820"/>
<path d="M46.7571 29.8662C46.9456 29.8662 47.0713 29.8976 47.1342 29.9291L46.9142 31.4059C46.8199 31.3431 46.6942 31.3431 46.5686 31.3431C46.5057 31.3431 46.4429 31.3431 46.38 31.3745C46.3172 31.4059 46.2543 31.4373 46.1915 31.5002C46.1286 31.563 46.0658 31.6573 46.0029 31.783C45.9401 31.9087 45.9087 32.0658 45.8773 32.2543L45.6887 34.234H44.4004L44.8089 29.9919H45.8458L45.8773 30.5261C46.1601 30.0547 46.4429 29.8662 46.7571 29.8662Z" fill="#0F1820"/>
<path d="M50.6218 32.977C50.7789 32.977 50.936 32.9142 51.0617 32.757C51.1874 32.6314 51.2817 32.4114 51.3131 32.16L51.3759 31.3745C51.2188 31.2488 51.0617 31.1859 50.8732 31.1859C50.6846 31.1859 50.5275 31.2802 50.4018 31.4687C50.2762 31.6573 50.2133 31.9401 50.2133 32.3486C50.2447 32.7571 50.3704 32.977 50.6218 32.977ZM51.7216 27.918H53.0099L52.4129 34.2025H51.3445L51.2817 33.8254C50.9674 34.1711 50.6218 34.3282 50.1819 34.3282C49.8048 34.3282 49.4906 34.1711 49.2392 33.8883C49.0192 33.574 48.8936 33.1341 48.8936 32.5685C48.8936 31.7515 49.0821 31.0917 49.4277 30.6203C49.7734 30.149 50.2447 29.8976 50.8418 29.8976C51.0931 29.8976 51.3131 29.929 51.5016 30.0233L51.7216 27.918Z" fill="#0F1820"/>
<path d="M55.1152 30.9976C54.7381 30.9976 54.5182 31.2804 54.4239 31.8774C54.6753 31.846 54.8952 31.8146 55.0523 31.7517C55.2095 31.6889 55.3037 31.626 55.3352 31.5632C55.398 31.5004 55.398 31.4061 55.398 31.2804C55.4294 31.0919 55.3352 30.9976 55.1152 30.9976ZM54.9895 33.1029C55.2095 33.1029 55.4608 33.0401 55.6808 32.9458C55.9008 32.8515 56.0893 32.7573 56.1836 32.663L56.4035 33.8256C56.2778 33.9199 56.0893 34.0456 55.8065 34.1399C55.5237 34.2341 55.178 34.297 54.7695 34.297C54.2354 34.297 53.8269 34.1399 53.5755 33.7942C53.2927 33.48 53.167 33.0086 53.167 32.4116C53.167 32.0345 53.1984 31.6889 53.2927 31.3747C53.3869 31.0604 53.5126 30.7776 53.7012 30.5577C53.8583 30.3377 54.0782 30.1492 54.361 30.0235C54.6124 29.8978 54.9267 29.835 55.2723 29.835C55.7436 29.835 56.0893 29.9607 56.3093 30.1806C56.5292 30.4006 56.6549 30.7148 56.6549 31.1233C56.6549 31.4061 56.6235 31.6575 56.5292 31.846C56.4349 32.0345 56.3093 32.1917 56.1207 32.3173C55.9322 32.443 55.7122 32.5373 55.4608 32.6001C55.2095 32.663 54.8952 32.6944 54.4867 32.7258C54.5182 32.9772 54.7067 33.1029 54.9895 33.1029Z" fill="#0F1820"/>
<path d="M59.9857 34.2969C59.3886 34.2969 58.8859 34.1398 58.5088 33.8256L58.7287 32.6315C59.1372 32.9457 59.5772 33.0714 60.0171 33.0714C60.3313 33.0714 60.457 33.0086 60.457 32.8515C60.457 32.7886 60.4256 32.7572 60.3627 32.6944C60.2999 32.6629 60.2056 32.6315 60.1113 32.6001C60.0171 32.5687 59.8914 32.5372 59.7657 32.5058C59.64 32.4744 59.5143 32.443 59.3886 32.3801C59.2629 32.3173 59.1372 32.2544 59.043 32.1602C58.9487 32.0659 58.8544 31.9716 58.7916 31.8145C58.7287 31.6574 58.6973 31.5003 58.6973 31.3117C58.6973 30.8404 58.823 30.4948 59.1058 30.212C59.3886 29.9292 59.7971 29.8035 60.3313 29.8035C60.6141 29.8035 60.8655 29.8349 61.0854 29.9292C61.3054 30.0234 61.4625 30.1491 61.6196 30.3377C61.7453 30.5262 61.8082 30.7776 61.8082 31.0289L60.5198 31.2489C60.5198 31.0918 60.4884 30.9975 60.4256 30.9347C60.3627 30.8718 60.2999 30.8404 60.2056 30.8404C60.1113 30.8404 60.0485 30.8718 59.9857 30.9033C59.9228 30.9347 59.8914 30.9975 59.8914 31.0918C59.8914 31.1546 59.9228 31.2489 59.9857 31.2803C60.0485 31.3432 60.1428 31.3746 60.237 31.406C60.3313 31.4374 60.457 31.4689 60.5827 31.5003C60.7084 31.5317 60.8341 31.5631 60.9597 31.626C61.0854 31.6888 61.2111 31.7517 61.3054 31.8145C61.3997 31.9088 61.4939 32.003 61.5568 32.1602C61.6196 32.3173 61.6511 32.4744 61.6511 32.6944C61.6511 33.1657 61.4939 33.5428 61.2111 33.8256C61.0226 34.1712 60.5827 34.2969 59.9857 34.2969Z" fill="#0F1820"/>
<path d="M64.1017 30.9976C63.7246 30.9976 63.5047 31.2804 63.4104 31.8774C63.6618 31.846 63.8817 31.8146 64.0388 31.7517C64.196 31.6889 64.2902 31.626 64.3217 31.5632C64.3845 31.5004 64.3845 31.4061 64.3845 31.2804C64.3845 31.0919 64.2902 30.9976 64.1017 30.9976ZM63.9446 33.1029C64.1645 33.1029 64.4159 33.0401 64.6359 32.9458C64.8558 32.8515 65.0444 32.7573 65.1386 32.663L65.3586 33.8256C65.2329 33.9199 65.0444 34.0456 64.7616 34.1399C64.4788 34.2341 64.1331 34.297 63.7246 34.297C63.1904 34.297 62.7819 34.1399 62.5306 33.7942C62.2478 33.48 62.1221 33.0086 62.1221 32.4116C62.1221 32.0345 62.1535 31.6889 62.2478 31.3747C62.342 31.0604 62.4677 30.7776 62.6563 30.5577C62.8134 30.3377 63.0333 30.1492 63.3161 30.0235C63.5675 29.8978 63.8817 29.835 64.2274 29.835C64.6987 29.835 65.0444 29.9607 65.2643 30.1806C65.4843 30.4006 65.61 30.7148 65.61 31.1233C65.61 31.4061 65.5786 31.6575 65.4843 31.846C65.39 32.0345 65.2643 32.1917 65.0758 32.3173C64.8873 32.443 64.6673 32.5373 64.4159 32.6001C64.1645 32.663 63.8503 32.6944 63.4418 32.7258C63.5047 32.9772 63.6932 33.1029 63.9446 33.1029Z" fill="#0F1820"/>
<path d="M68.218 29.8662C68.4066 29.8662 68.5322 29.8976 68.5951 29.9291L68.3751 31.4059C68.2809 31.3431 68.1552 31.3431 68.0295 31.3431C67.9666 31.3431 67.9038 31.3431 67.841 31.3745C67.7781 31.4059 67.7153 31.4373 67.6524 31.5002C67.5896 31.563 67.5267 31.6573 67.4639 31.783C67.401 31.9087 67.3696 32.0658 67.3382 32.2543L67.1497 34.234H65.8613L66.2698 29.9919H67.3068L67.3382 30.5261C67.5896 30.0547 67.8724 29.8662 68.218 29.8662Z" fill="#0F1820"/>
<path d="M71.2666 29.9607H72.6178L70.7324 34.2027H69.6641L68.5957 29.9607H69.9155L70.3554 32.3802L71.2666 29.9607Z" fill="#0F1820"/>
<path d="M73.3088 29.5522C73.0888 29.5522 72.9317 29.4893 72.806 29.3322C72.6803 29.1751 72.6175 28.9866 72.6175 28.7352C72.6175 28.421 72.7117 28.1696 72.8689 27.9811C73.026 27.7925 73.2459 27.6982 73.4973 27.6982C73.7173 27.6982 73.8744 27.7611 74.0315 27.9182C74.1572 28.0753 74.22 28.2639 74.22 28.5152C74.22 28.8295 74.1258 29.0808 73.9687 29.2694C73.7801 29.4579 73.5602 29.5522 73.3088 29.5522ZM72.209 34.2027L72.6175 29.9607H73.9058L73.4973 34.2027H72.209Z" fill="#0F1820"/>
<path d="M76.5764 29.8662C76.765 29.8662 76.8906 29.8976 76.9535 29.9291L76.7335 31.4059C76.6393 31.3431 76.5136 31.3431 76.3879 31.3431C76.325 31.3431 76.2622 31.3431 76.1993 31.3745C76.1365 31.4059 76.0737 31.4373 76.0108 31.5002C75.948 31.563 75.8851 31.6573 75.8223 31.783C75.7594 31.9087 75.728 32.0658 75.6966 32.2543L75.5081 34.234H74.2197L74.6282 29.9919H75.6652L75.6966 30.5261C75.948 30.0547 76.2308 29.8662 76.5764 29.8662Z" fill="#0F1820"/>
<path d="M77.2994 31.9401L77.6136 27.918H78.9334L78.4935 31.9401H77.2994ZM77.6451 34.2968C77.4565 34.2968 77.2994 34.2339 77.2051 34.0768C77.0794 33.9197 77.0166 33.7626 77.0166 33.5426C77.0166 33.2598 77.0794 33.0399 77.2366 32.8827C77.3937 32.6942 77.5822 32.5999 77.8022 32.5999C77.9907 32.5999 78.1478 32.6628 78.2421 32.8199C78.3678 32.977 78.4306 33.1341 78.4306 33.3541C78.4306 33.6369 78.3678 33.8568 78.2107 34.014C78.0535 34.2025 77.865 34.2968 77.6451 34.2968Z" fill="#0F1820"/>
</svg>
