<svg width="20" height="20" viewBox="0 0 20 20" fill="none" xmlns="http://www.w3.org/2000/svg">
<g id="Group">
<path id="Vector" d="M15.3033 14.47L10 19.7734L4.69667 14.47C3.64779 13.4211 2.93349 12.0847 2.64411 10.6299C2.35473 9.17504 2.50326 7.66704 3.07092 6.2966C3.63858 4.92616 4.59987 3.75483 5.83324 2.93072C7.0666 2.10661 8.51665 1.66675 10 1.66675C11.4834 1.66675 12.9334 2.10661 14.1668 2.93072C15.4001 3.75483 16.3614 4.92616 16.9291 6.2966C17.4968 7.66704 17.6453 9.17504 17.3559 10.6299C17.0665 12.0847 16.3522 13.4211 15.3033 14.47V14.47ZM10 12.5C10.8841 12.5 11.7319 12.1488 12.357 11.5237C12.9821 10.8986 13.3333 10.0507 13.3333 9.16668C13.3333 8.28263 12.9821 7.43478 12.357 6.80966C11.7319 6.18454 10.8841 5.83335 10 5.83335C9.11595 5.83335 8.2681 6.18454 7.64298 6.80966C7.01786 7.43478 6.66667 8.28263 6.66667 9.16668C6.66667 10.0507 7.01786 10.8986 7.64298 11.5237C8.2681 12.1488 9.11595 12.5 10 12.5V12.5ZM10 10.8334C9.55798 10.8334 9.13405 10.6578 8.82149 10.3452C8.50893 10.0326 8.33334 9.60871 8.33334 9.16668C8.33334 8.72466 8.50893 8.30073 8.82149 7.98817C9.13405 7.67561 9.55798 7.50002 10 7.50002C10.442 7.50002 10.866 7.67561 11.1785 7.98817C11.4911 8.30073 11.6667 8.72466 11.6667 9.16668C11.6667 9.60871 11.4911 10.0326 11.1785 10.3452C10.866 10.6578 10.442 10.8334 10 10.8334Z" fill="#956036"/>
</g>
</svg>
