<svg width="34" height="33" viewBox="0 0 34 33" fill="none" xmlns="http://www.w3.org/2000/svg">
<circle cx="17" cy="16.5" r="16.5" fill="#E8E8E8"/>
<g clip-path="url(#clip0_669_44202)">
<path d="M23.364 21.8639L17 28.2279L10.636 21.8639C9.37734 20.6052 8.52019 19.0016 8.17293 17.2558C7.82567 15.5099 8.00391 13.7004 8.6851 12.0558C9.36629 10.4113 10.5198 9.00569 11.9999 8.01677C13.4799 7.02784 15.22 6.5 17 6.5C18.78 6.5 20.5201 7.02784 22.0001 8.01677C23.4802 9.00569 24.6337 10.4113 25.3149 12.0558C25.9961 13.7004 26.1743 15.5099 25.8271 17.2558C25.4798 19.0016 24.6227 20.6052 23.364 21.8639ZM17 19.4999C18.0609 19.4999 19.0783 19.0785 19.8284 18.3283C20.5786 17.5782 21 16.5608 21 15.4999C21 14.4391 20.5786 13.4216 19.8284 12.6715C19.0783 11.9213 18.0609 11.4999 17 11.4999C15.9391 11.4999 14.9217 11.9213 14.1716 12.6715C13.4214 13.4216 13 14.4391 13 15.4999C13 16.5608 13.4214 17.5782 14.1716 18.3283C14.9217 19.0785 15.9391 19.4999 17 19.4999ZM17 17.4999C16.4696 17.4999 15.9609 17.2892 15.5858 16.9141C15.2107 16.5391 15 16.0304 15 15.4999C15 14.9695 15.2107 14.4608 15.5858 14.0857C15.9609 13.7106 16.4696 13.4999 17 13.4999C17.5304 13.4999 18.0391 13.7106 18.4142 14.0857C18.7893 14.4608 19 14.9695 19 15.4999C19 16.0304 18.7893 16.5391 18.4142 16.9141C18.0391 17.2892 17.5304 17.4999 17 17.4999Z" fill="#969696"/>
</g>
<defs>
<clipPath id="clip0_669_44202">
<rect width="24" height="24" fill="white" transform="translate(5 4.5)"/>
</clipPath>
</defs>
</svg>
