<svg width="18" height="18" viewBox="0 0 18 18" fill="none" xmlns="http://www.w3.org/2000/svg">
<g id="Group">
<path id="Vector" d="M5.25 12.75H12.75V16.5H5.25V12.75ZM14.25 15V11.25H3.75V15H2.25C2.05109 15 1.86032 14.921 1.71967 14.7803C1.57902 14.6397 1.5 14.4489 1.5 14.25V6.75C1.5 6.55109 1.57902 6.36032 1.71967 6.21967C1.86032 6.07902 2.05109 6 2.25 6H15.75C15.9489 6 16.1397 6.07902 16.2803 6.21967C16.421 6.36032 16.5 6.55109 16.5 6.75V14.25C16.5 14.4489 16.421 14.6397 16.2803 14.7803C16.1397 14.921 15.9489 15 15.75 15H14.25ZM3.75 7.5V9H6V7.5H3.75ZM5.25 1.5H12.75C12.9489 1.5 13.1397 1.57902 13.2803 1.71967C13.421 1.86032 13.5 2.05109 13.5 2.25V4.5H4.5V2.25C4.5 2.05109 4.57902 1.86032 4.71967 1.71967C4.86032 1.57902 5.05109 1.5 5.25 1.5Z" fill="#666666"/>
</g>
</svg>
